PathFileType	4	(X/Y/Z)	/Users/niels/Desktop/University/Third Semester/Perception and Action/Exam/Gymnastics Motion Tracking/Code for Gym Tracking/Analyzed Data/Webcam_Backflip/id1_5_trajectory_Sports2D/id1_5_trajectory_Sports2D_px_person00.trc
DataRate	CameraRate	NumFrames	NumMarkers	Units	OrigDataRate	OrigDataStartFrame	OrigNumFrames
29.71698113207547	29.71698113207547	8	22	m	29.71698113207547	0	106
Frame#	Time	Hip			RHip			RKnee			RAnkle			RBigToe			RSmallToe			RHeel			LHip			LKnee			LAnkle			LBigToe			LSmallToe			LHeel			Neck			Head			Nose			RShoulder			RElbow			RWrist			LShoulder			LElbow			LWrist		
		X1	Y1	Z1	X2	Y2	Z2	X3	Y3	Z3	X4	Y4	Z4	X5	Y5	Z5	X6	Y6	Z6	X7	Y7	Z7	X8	Y8	Z8	X9	Y9	Z9	X10	Y10	Z10	X11	Y11	Z11	X12	Y12	Z12	X13	Y13	Z13	X14	Y14	Z14	X15	Y15	Z15	X16	Y16	Z16	X17	Y17	Z17	X18	Y18	Z18	X19	Y19	Z19	X20	Y20	Z20	X21	Y21	Z21	X22	Y22	Z22
0	0.0	0.9600793877624154	-0.6043392322156229	0.0	0.9520297822724797	-0.6030015334554178	0.0	0.9667774413360991	-0.7237093076430032	0.0	0.9520331495241577	-0.8578345974758395	0.0	1.0029940183744497	-0.877957292814882	0.0	0.9909125528274859	-0.8819812175475129	0.0	0.9399580891761791	-0.873932346084328	0.0	0.9761772303153374	-0.6056838098603261	0.0	1.0043493059552218	-0.7102943981204435	0.0	0.9708060517498112	-0.8310074616243744	0.0	1.0097012293606098	-0.8632042353626235	0.0	1.0070176962180255	-0.8591790863051494	0.0	0.9587416250598816	-0.849785678036389	0.0	1.0231135357483312	-0.4353468539712567	0.0	1.0606680791428427	-0.369622900577332	0.0	1.0566435834978443	-0.4125491990487924	0.0	1.0083575035931243	-0.45143790911871984	0.0	1.025813778458632	-0.531897549360897	0.0	1.0834853290567765	-0.5989303051631031	0.0	1.015068669050118	-0.4568017619070442	0.0	1.0083688529294308	-0.5359288424572314	0.0	0.9882613421797865	-0.5989362696851384	0.0
1	0.033650793650793646	0.9638342734535807	-0.6086757801105261	0.0	0.9541907206703621	-0.6078888081892375	0.0	0.9675948345895061	-0.728917287789448	0.0	0.9517065740203194	-0.8624889203970675	0.0	1.0018700995313436	-0.8807968855576402	0.0	0.9893150960233575	-0.8852824921602521	0.0	0.9390053375038694	-0.8786031119018591	0.0	0.9808200675840147	-0.6097083889724013	0.0	1.0119776838085817	-0.7118238195106892	0.0	0.9717795724430875	-0.8303575453985845	0.0	1.0113715895423612	-0.8624219144895645	0.0	1.0085490382603364	-0.8575452253343709	0.0	0.9592966799684137	-0.8497567007180491	0.0	1.0142089599457005	-0.4355106892029892	0.0	1.0468213375036828	-0.366097414291156	0.0	1.0471284564537415	-0.41050790494950534	0.0	0.999674655478522	-0.4525005568005955	0.0	1.0287186751083062	-0.5307271469946867	0.0	1.0931200107371932	-0.5893098191520204	0.0	1.0096904217911273	-0.45724777004446393	0.0	1.0044497637644632	-0.5348047566325044	0.0	0.9931200466204118	-0.5968055722677154	0.0
2	0.06730158730158729	0.9674247903271341	-0.6128118158582495	0.0	0.9564372092012714	-0.6126002960345596	0.0	0.9687467948563165	-0.7336698920596966	0.0	0.9514746222278623	-0.8667682964729743	0.0	1.0009569631383868	-0.8832734684032424	0.0	0.9879754182304459	-0.8881657342942179	0.0	0.9382959928029675	-0.8827979465265386	0.0	0.9851873191913235	-0.6136268958137586	0.0	1.018456612710528	-0.7139930478664002	0.0	0.9724471423647579	-0.8303362121801366	0.0	1.0125501504518044	-0.8619805123858513	0.0	1.0095930619011229	-0.856303641613928	0.0	0.9595952398609053	-0.8502365513985236	0.0	1.005790738967354	-0.43603931030407334	0.0	1.0335676560560743	-0.3630733408217155	0.0	1.0381341194409737	-0.4088471218354058	0.0	0.991280341597066	-0.453825427971804	0.0	1.0310521602395182	-0.5296602621644381	0.0	1.1016180376531866	-0.5796488869873423	0.0	1.0047071720843617	-0.458100547500965	0.0	1.0027911792523634	-0.5336226967688539	0.0	1.0019467533555313	-0.5932976147348696	0.0
3	0.10095238095238093	0.9707264665044671	-0.6165768491935427	0.0	0.9588345428810514	-0.6169121477995624	0.0	0.9705974788017502	-0.7376181147661256	0.0	0.9514262706393221	-0.8703326590035317	0.0	1.0004147038300308	-0.8852345627469447	0.0	0.9871207742257665	-0.8904357643047485	0.0	0.9379805066272975	-0.8861274580252296	0.0	0.9890103487671801	-0.6172695968467059	0.0	1.0228609607204293	-0.7171865401122306	0.0	0.9725668558279655	-0.8314886217075579	0.0	1.0129326454237342	-0.8622619092533681	0.0	1.0098700642682892	-0.8559127789761469	0.0	0.9593416846524113	-0.8517212043700358	0.0	0.9982026105277018	-0.43704717035664237	0.0	1.021313020790653	-0.36081228882303984	0.0	1.0300928693788463	-0.4077065774168212	0.0	0.983445993397807	-0.4555199858126484	0.0	1.0323891137868304	-0.5287929089105188	0.0	1.108088171392485	-0.5700098685064072	0.0	1.0003500207794682	-0.45948150991719666	0.0	1.004966895481468	-0.5321204644765085	0.0	1.0174807109688533	-0.5869102682036703	0.0
4	0.13460317460317459	0.9736307942023549	-0.6198369675886124	0.0	0.961407849746561	-0.6205779931797842	0.0	0.973367385964524	-0.7405938783428003	0.0	0.9516415348984704	-0.8729202160517384	0.0	1.0002848598192198	-0.8867681246690736	0.0	0.9868697261770225	-0.8921658150815466	0.0	0.9380923888955913	-0.8883913756679852	0.0	0.9920588356586958	-0.6204318128259975	0.0	1.0246607059477484	-0.721392155162694	0.0	0.9720322194376383	-0.834098721821893	0.0	1.0124907666043728	-0.8636115866671648	0.0	1.009381590046595	-0.8568307270091973	0.0	0.9582774684372553	-0.8544905678819822	0.0	0.9916165523746895	-0.4383666356820848	0.0	1.0102597767287769	-0.3592867161488146	0.0	1.02324631853203	-0.40693937822403053	0.0	0.9764243420561087	-0.45749908273012413	0.0	1.0325436473697114	-0.5281846793536279	0.0	1.1121101000476585	-0.5606353944891767	0.0	0.9965861744210056	-0.46118430372859065	0.0	1.0109103114658822	-0.5298915666625479	0.0	1.039650253608543	-0.5767191356478365	0.0
5	0.16825396825396824	0.9760725839535399	-0.6224959223048372	0.0	0.9641724806723019	-0.6233832332318269	0.0	0.9769246293151037	-0.7426093238153978	0.0	0.9521618631260469	-0.8743929437886593	0.0	1.0004396832483888	-0.8880771968739166	0.0	0.9871017331521104	-0.8935401491961369	0.0	0.9386064680056647	-0.889616310440044	0.0	0.9942205159269412	-0.6229209549248698	0.0	1.0237487313683982	-0.7262284615817576	0.0	0.9709123350761403	-0.8380561115701163	0.0	1.0114279955936631	-0.8661471343503873	0.0	1.0083052052875292	-0.8592719738887659	0.0	0.9563345003852363	-0.8584116379456609	0.0	0.9860573533314557	-0.4396830561353723	0.0	1.0004433570134126	-0.3582687828576536	0.0	1.0175694366525116	-0.406226673178962	0.0	0.9704351807793853	-0.4595508556045774	0.0	1.0316324269219797	-0.5277468029081663	0.0	1.1138432700887781	-0.5518541522862477	0.0	0.9931773929187828	-0.4628243065279351	0.0	1.0187683422682112	-0.5267176806196975	0.0	1.0645004636755953	-0.5635286616875543	0.0
6	0.20190476190476186	0.9780945029577436	-0.6244999010915757	0.0	0.9671288269599804	-0.6251845844943696	0.0	0.9808049692836117	-0.7438000077049002	0.0	0.9529314147346334	-0.8747988603278435	0.0	1.0006313254965857	-0.8893407696787716	0.0	0.9874671527964808	-0.8947036698480155	0.0	0.9394671279353337	-0.890014280833861	0.0	0.9955310355126806	-0.6245725072408121	0.0	1.0204222519204955	-0.731078301944379	0.0	0.9694168014468061	-0.8429039108272646	0.0	1.0100756064939274	-0.8696125144017198	0.0	1.0068621910570523	-0.8629718883701509	0.0	0.9537326896616753	-0.8629848156474771	0.0	0.9814478087134609	-0.4406810305874102	0.0	0.9917861644101856	-0.35747928173244653	0.0	1.0128150880732785	-0.40525277929101416	0.0	0.965626260395945	-0.4614367002679451	0.0	1.0300722939651052	-0.5272141305879153	0.0	1.113926543545263	-0.5439329251520824	0.0	0.9898899275221954	-0.464033335208448	0.0	1.0260863812464482	-0.5228350445281671	0.0	1.0860868495722418	-0.5497019189667969	0.0
7	0.23555555555555552	0.9798436398820446	-0.6258092475439164	0.0	0.970215050624873	-0.6259182421845289	0.0	0.9844870738889626	-0.7443208473902551	0.0	0.9538041482685125	-0.8743287792985054	0.0	1.0006812350570353	-0.8905694328508472	0.0	0.9876767846845952	-0.8956732212691615	0.0	0.9405509550100778	-0.889832600377439	0.0	0.9961333638805807	-0.6252671790603733	0.0	1.0153733344897997	-0.7352553071568199	0.0	0.9678228291818315	-0.8479487075175253	0.0	1.0087810054634532	-0.8734082997442215	0.0	1.005309847587174	-0.867185796419647	0.0	0.9509125033190294	-0.8675088035034064	0.0	0.9776637144180715	-0.44110545027162	0.0	0.9841952909189484	-0.35668432047025733	0.0	1.0086445772297306	-0.4037872660866664	0.0	0.962067172944343	-0.46292397472758384	0.0	1.0284375205116743	-0.5261854546692746	0.0	1.1132426288079	-0.5369410528624474	0.0	0.9865788778752145	-0.4645798082048988	0.0	1.0311312176271012	-0.5188342918501803	0.0	1.1004772327818146	-0.5374541258429162	0.0
